<svg width="29" height="29" viewBox="0 0 29 29" fill="none" xmlns="http://www.w3.org/2000/svg">
<path d="M14.0726 26.8953C15.7568 26.8973 17.4248 26.5666 18.9808 25.9221C20.5368 25.2776 21.9501 24.3319 23.1395 23.1395C24.3319 21.9501 25.2776 20.5368 25.9221 18.9808C26.5666 17.4248 26.8973 15.7568 26.8953 14.0726C26.8973 12.3884 26.5666 10.7204 25.9221 9.16445C25.2776 7.60846 24.3319 6.19517 23.1395 5.00576C21.9501 3.81336 20.5368 2.86772 18.9808 2.22319C17.4248 1.57866 15.7568 1.24793 14.0726 1.25001C12.3884 1.24793 10.7204 1.57866 9.16445 2.22319C7.60846 2.86772 6.19517 3.81336 5.00576 5.00576C3.81336 6.19517 2.86772 7.60846 2.22319 9.16445C1.57866 10.7204 1.24793 12.3884 1.25001 14.0726C1.24793 15.7568 1.57866 17.4248 2.22319 18.9808C2.86772 20.5368 3.81336 21.9501 5.00576 23.1395C6.19517 24.3319 7.60846 25.2776 9.16445 25.9221C10.7204 26.5666 12.3884 26.8973 14.0726 26.8953Z" stroke="#4F47E5" stroke-width="2.5" stroke-linejoin="round"/>
<path d="M8.9436 14.0726L12.7904 17.9194L20.484 10.2258" stroke="#4F47E5" stroke-width="2.5" stroke-linecap="round" stroke-linejoin="round"/>
</svg>
