<svg width="25" height="31" viewBox="0 0 25 31" fill="none" xmlns="http://www.w3.org/2000/svg">
<path d="M0.735222 2.0493C0.83048 1.47561 1.12664 0.954482 1.57079 0.579063C2.01493 0.203644 2.5781 -0.0016016 3.15964 9.41223e-06C3.76406 9.41223e-06 4.31735 0.216516 4.74736 0.575105C5.2138 0.202634 5.79304 -0.000164266 6.38995 9.41223e-06C7.0109 9.41223e-06 7.58224 0.215012 8.03254 0.575105C8.4776 0.202511 9.03983 -0.0011376 9.62026 9.41223e-06C10.2018 -0.0016016 10.765 0.203644 11.2091 0.579063C11.6533 0.954482 11.9494 1.47561 12.0447 2.0493C12.3213 3.74226 12.7799 6.86206 12.7799 9.02112C12.7807 10.0365 12.5391 11.0375 12.0754 11.9408C11.6116 12.8442 10.939 13.6238 10.1134 14.215C9.63229 14.5608 9.39699 14.9781 9.39699 15.3351C9.39699 15.3637 9.39774 15.3833 9.39924 15.4058C9.4654 16.2297 10.1487 24.784 10.1487 26.3116C10.1487 27.3085 9.75273 28.2645 9.04782 28.9694C8.34291 29.6743 7.38685 30.0704 6.38995 30.0704C5.39306 30.0704 4.43699 29.6743 3.73208 28.9694C3.02717 28.2645 2.63116 27.3085 2.63116 26.3116C2.63116 24.784 3.31451 16.2297 3.37991 15.4058C3.38202 15.3823 3.38302 15.3587 3.38292 15.3351C3.38292 14.9781 3.14837 14.5608 2.66649 14.215C1.84091 13.6238 1.16831 12.8442 0.704542 11.9408C0.240779 11.0375 -0.000755129 10.0365 1.77346e-06 9.02112C1.77346e-06 6.86206 0.458575 3.74226 0.735222 2.0493ZM9.02111 9.58493C9.02111 9.83416 8.9221 10.0732 8.74588 10.2494C8.56965 10.4256 8.33063 10.5246 8.08141 10.5246C7.83219 10.5246 7.59317 10.4256 7.41694 10.2494C7.24071 10.0732 7.14171 9.83416 7.14171 9.58493V2.63117C7.14171 2.43179 7.06251 2.24057 6.92153 2.09959C6.78054 1.95861 6.58933 1.87941 6.38995 1.87941C6.19057 1.87941 5.99936 1.95861 5.85838 2.09959C5.7174 2.24057 5.63819 2.43179 5.63819 2.63117V9.58493C5.63819 9.83416 5.53919 10.0732 5.36296 10.2494C5.18673 10.4256 4.94772 10.5246 4.69849 10.5246C4.44927 10.5246 4.21025 10.4256 4.03403 10.2494C3.8578 10.0732 3.7588 9.83416 3.7588 9.58493V2.47856C3.7588 2.31965 3.69567 2.16726 3.58331 2.05489C3.47095 1.94253 3.31855 1.87941 3.15964 1.87941C2.86796 1.87941 2.63341 2.08464 2.58981 2.35301C2.31166 4.05725 1.8794 7.03572 1.8794 9.02112C1.87866 9.73814 2.04916 10.445 2.37671 11.0828C2.70425 11.7206 3.17938 12.271 3.76255 12.6882C4.52935 13.2385 5.26231 14.1564 5.26231 15.3344C5.26231 15.4081 5.26006 15.4772 5.25404 15.5562C5.18188 16.4485 4.51055 24.8832 4.51055 26.3116C4.51055 26.81 4.70856 27.288 5.06102 27.6405C5.41347 27.993 5.8915 28.191 6.38995 28.191C6.8884 28.191 7.36643 27.993 7.71889 27.6405C8.07134 27.288 8.26935 26.81 8.26935 26.3116C8.26935 24.8832 7.59803 16.4485 7.52661 15.5562C7.52089 15.4826 7.51788 15.4089 7.51759 15.3351C7.51759 14.1564 8.25056 13.2377 9.01735 12.6882C9.60052 12.271 10.0756 11.7206 10.4032 11.0828C10.7307 10.445 10.9012 9.73814 10.9005 9.02112C10.9005 7.03572 10.4682 4.05725 10.1901 2.35301C10.1669 2.21924 10.0968 2.0981 9.99236 2.01131C9.88794 1.92453 9.75603 1.87776 9.62026 1.87941C9.46135 1.87941 9.30896 1.94253 9.1966 2.05489C9.08423 2.16726 9.02111 2.31965 9.02111 2.47856V9.58493ZM22.1769 1.90346V14.0955C22.1769 14.539 22.3182 16.5988 22.4738 18.8579L22.4844 19.0112C22.6948 22.0679 22.9286 25.4779 22.9286 26.3116C22.9286 26.81 22.7306 27.288 22.3782 27.6405C22.0257 27.993 21.5477 28.191 21.0492 28.191C20.5508 28.191 20.0728 27.993 19.7203 27.6405C19.3679 27.288 19.1699 26.81 19.1699 26.3116C19.1699 25.5733 19.354 22.5633 19.5435 19.6811C19.6546 17.9944 19.7691 16.3079 19.887 14.6217L19.9194 14.1616C19.9284 14.033 19.9109 13.9038 19.8679 13.7822C19.8249 13.6606 19.7574 13.5492 19.6694 13.4548C19.5815 13.3605 19.4751 13.2852 19.3568 13.2338C19.2385 13.1823 19.1109 13.1558 18.9819 13.1558H16.7266C16.5771 13.1558 16.4337 13.0964 16.328 12.9907C16.2222 12.8849 16.1628 12.7415 16.1628 12.592V8.4573C16.1628 6.81031 16.7806 5.22323 17.8941 4.00974C19.0077 2.79624 20.536 2.04463 22.1769 1.90346ZM17.9746 15.0352L17.9272 15.7208C17.8565 16.7447 17.7618 18.1264 17.6686 19.5578C17.4822 22.3949 17.2905 25.4929 17.2905 26.3116C17.2905 27.3085 17.6865 28.2645 18.3914 28.9694C19.0963 29.6743 20.0524 30.0704 21.0492 30.0704C22.0461 30.0704 23.0022 29.6743 23.7071 28.9694C24.412 28.2645 24.808 27.3085 24.808 26.3116C24.808 25.4027 24.5712 21.9559 24.366 18.9804L24.3592 18.8827C24.1954 16.4981 24.0563 14.4639 24.0563 14.0955V0.939708C24.0563 0.420994 23.6353 9.41223e-06 23.1166 9.41223e-06H22.7407C18.07 9.41223e-06 14.2834 3.78662 14.2834 8.4573V12.592C14.2834 13.24 14.5408 13.8614 14.999 14.3196C15.4572 14.7778 16.0787 15.0352 16.7266 15.0352H17.9746Z" fill="#4F47E5"/>
</svg>
