<svg width="27" height="24" viewBox="0 0 27 24" fill="none" xmlns="http://www.w3.org/2000/svg">
<path d="M17.9808 22.8326V20.4067C17.9808 19.12 17.4696 17.886 16.5598 16.9761C15.6499 16.0662 14.4159 15.5551 13.1291 15.5551H5.85165C4.56491 15.5551 3.33088 16.0662 2.42102 16.9761C1.51115 17.886 1 19.12 1 20.4067V22.8326M17.9808 1.1554C19.0212 1.42511 19.9425 2.03265 20.6003 2.88266C21.258 3.73267 21.6149 4.77702 21.6149 5.85179C21.6149 6.92657 21.258 7.97092 20.6003 8.82093C19.9425 9.67093 19.0212 10.2785 17.9808 10.5482M25.2582 22.8326V20.4067C25.2574 19.3318 24.8997 18.2875 24.2411 17.4379C23.5825 16.5883 22.6603 15.9815 21.6195 15.7128" stroke="#4F47E5" stroke-width="2" stroke-linecap="round" stroke-linejoin="round"/>
<path d="M9.49038 10.7033C12.1699 10.7033 14.342 8.53114 14.342 5.85165C14.342 3.17216 12.1699 1 9.49038 1C6.81089 1 4.63873 3.17216 4.63873 5.85165C4.63873 8.53114 6.81089 10.7033 9.49038 10.7033Z" stroke="#4F47E5" stroke-width="2" stroke-linecap="round" stroke-linejoin="round"/>
</svg>
