<svg width="31" height="26" viewBox="0 0 31 26" fill="none" xmlns="http://www.w3.org/2000/svg">
<path d="M20.731 25.1583H9.54958C9.17889 25.1583 8.82338 25.011 8.56127 24.7489C8.29915 24.4868 8.15189 24.1313 8.15189 23.7606V12.677L6.33491 14.1445C5.78981 14.6756 4.90928 14.6756 4.36418 14.1445L0.408744 10.1891C0.279174 10.0598 0.176378 9.9062 0.10624 9.73712C0.0361022 9.56803 0 9.38678 0 9.20373C0 9.02068 0.0361022 8.83942 0.10624 8.67034C0.176378 8.50126 0.279174 8.34767 0.408744 8.21836L8.62711 0H10.9473C10.9473 1.53745 12.8201 2.79536 15.1403 2.79536C17.4604 2.79536 19.3333 1.53745 19.3333 0H21.6535L29.8719 8.21836C30.417 8.76346 30.417 9.644 29.8719 10.1891L25.9164 14.1445C25.3713 14.6756 24.4908 14.6756 23.9457 14.1445L22.1287 12.677V23.7606C22.1287 24.1313 21.9814 24.4868 21.7193 24.7489C21.4572 25.011 21.1017 25.1583 20.731 25.1583ZM26.9088 9.19674L20.8848 3.18671C20.4515 3.6759 19.9343 4.10918 19.3333 4.47258C18.1593 5.17142 16.7197 5.59072 15.1403 5.59072C12.7642 5.59072 10.6537 4.6403 9.39583 3.18671L3.37183 9.19674L5.35653 11.1814L9.54958 8.38608H10.9473V22.3629H19.3333V8.38608H20.731L24.9241 11.1814L26.9088 9.19674Z" fill="#4F47E5"/>
</svg>
