<svg width="38" height="39" viewBox="0 0 38 39" fill="none" xmlns="http://www.w3.org/2000/svg">
<path d="M1.5 19.0979C1.5 21.4089 1.94373 23.6972 2.80586 25.8323C3.66798 27.9674 4.93162 29.9074 6.52462 31.5415C8.11762 33.1756 10.0088 34.4718 12.0901 35.3562C14.1715 36.2406 16.4023 36.6958 18.6551 36.6958C20.908 36.6958 23.1388 36.2406 25.2201 35.3562C27.3015 34.4718 29.1926 33.1756 30.7856 31.5415C32.3786 29.9074 33.6423 27.9674 34.5044 25.8323C35.3665 23.6972 35.8103 21.4089 35.8103 19.0979C35.8103 16.7869 35.3665 14.4985 34.5044 12.3635C33.6423 10.2284 32.3786 8.28842 30.7856 6.6543C29.1926 5.02019 27.3015 3.72394 25.2201 2.83956C23.1388 1.95518 20.908 1.5 18.6551 1.5C16.4023 1.5 14.1715 1.95518 12.0901 2.83956C10.0088 3.72394 8.11762 5.02019 6.52462 6.6543C4.93162 8.28842 3.66798 10.2284 2.80586 12.3635C1.94373 14.4985 1.5 16.7869 1.5 19.0979Z" stroke="#4F47E5" stroke-width="3" stroke-linecap="round" stroke-linejoin="round"/>
<path d="M7.5386 32.4898C8.01039 30.879 8.97576 29.4672 10.2915 28.4637C11.6073 27.4602 13.2033 26.9186 14.8429 26.9191H22.4674C24.1091 26.9185 25.7071 27.4615 27.0238 28.4672C28.3405 29.473 29.3055 30.8879 29.7755 32.5015M12.9368 15.1871C12.9368 16.7429 13.5392 18.2349 14.6116 19.335C15.684 20.4351 17.1385 21.0531 18.6551 21.0531C20.1717 21.0531 21.6262 20.4351 22.6986 19.335C23.771 18.2349 24.3735 16.7429 24.3735 15.1871C24.3735 13.6314 23.771 12.1393 22.6986 11.0393C21.6262 9.93919 20.1717 9.32117 18.6551 9.32117C17.1385 9.32117 15.684 9.93919 14.6116 11.0393C13.5392 12.1393 12.9368 13.6314 12.9368 15.1871Z" stroke="#4F47E5" stroke-width="3" stroke-linecap="round" stroke-linejoin="round"/>
</svg>
