<svg width="14" height="14" viewBox="0 0 14 14" fill="none" xmlns="http://www.w3.org/2000/svg">
<path d="M6.90381 13.0576C7.71209 13.0586 8.51259 12.8999 9.25934 12.5906C10.0061 12.2813 10.6844 11.8274 11.2552 11.2552C11.8274 10.6844 12.2813 10.0061 12.5906 9.25934C12.8999 8.51259 13.0586 7.71209 13.0576 6.90381C13.0586 6.09554 12.8999 5.29503 12.5906 4.54829C12.2813 3.80154 11.8274 3.12327 11.2552 2.55245C10.6844 1.9802 10.0061 1.52637 9.25934 1.21705C8.51259 0.90773 7.71209 0.749008 6.90381 0.750005C6.09554 0.749008 5.29503 0.90773 4.54829 1.21705C3.80154 1.52637 3.12327 1.9802 2.55245 2.55245C1.9802 3.12327 1.52637 3.80154 1.21705 4.54829C0.90773 5.29503 0.749008 6.09554 0.750005 6.90381C0.749008 7.71209 0.90773 8.51259 1.21705 9.25934C1.52637 10.0061 1.9802 10.6844 2.55245 11.2552C3.12327 11.8274 3.80154 12.2813 4.54829 12.5906C5.29503 12.8999 6.09554 13.0586 6.90381 13.0576Z" stroke="#111827" stroke-width="1.5" stroke-linejoin="round"/>
<path d="M4.44229 6.90388L6.28843 8.75002L9.98072 5.05774" stroke="#111827" stroke-width="1.5" stroke-linecap="round" stroke-linejoin="round"/>
</svg>
