<svg width="23" height="25" viewBox="0 0 23 25" fill="none" xmlns="http://www.w3.org/2000/svg">
<path d="M9.06307 3.88417V4.31575H13.3788V3.88417C13.3788 3.31187 13.1515 2.76301 12.7468 2.35833C12.3421 1.95365 11.7933 1.7263 11.2209 1.7263C10.6486 1.7263 10.0998 1.95365 9.6951 2.35833C9.29042 2.76301 9.06307 3.31187 9.06307 3.88417ZM7.33677 4.31575V3.88417C7.33677 2.85403 7.746 1.86607 8.47442 1.13765C9.20285 0.409224 10.1908 0 11.2209 0C12.2511 0 13.2391 0.409224 13.9675 1.13765C14.6959 1.86607 15.1051 2.85403 15.1051 3.88417V4.31575H21.5787C21.8077 4.31575 22.0272 4.40669 22.1891 4.56856C22.351 4.73043 22.4419 4.94998 22.4419 5.1789C22.4419 5.40782 22.351 5.62737 22.1891 5.78924C22.0272 5.95111 21.8077 6.04205 21.5787 6.04205H20.2771L18.644 20.3427C18.5236 21.3959 18.0198 22.368 17.2286 23.0735C16.4374 23.779 15.4142 24.1687 14.3542 24.1682H8.08772C7.02765 24.1687 6.00448 23.779 5.2133 23.0735C4.42212 22.368 3.91828 21.3959 3.79786 20.3427L2.16478 6.04205H0.86315C0.634228 6.04205 0.414683 5.95111 0.252811 5.78924C0.0909387 5.62737 0 5.40782 0 5.1789C0 4.94998 0.0909387 4.73043 0.252811 4.56856C0.414683 4.40669 0.634228 4.31575 0.86315 4.31575H7.33677ZM5.5138 20.1459C5.58586 20.7777 5.88785 21.3608 6.36221 21.7842C6.83657 22.2077 7.45014 22.4418 8.08599 22.4419H14.355C14.9909 22.4418 15.6045 22.2077 16.0788 21.7842C16.5532 21.3608 16.8552 20.7777 16.9272 20.1459L18.5405 6.04205H3.9023L5.5138 20.1459ZM8.6315 9.06307C8.86042 9.06307 9.07997 9.15401 9.24184 9.31589C9.40371 9.47776 9.49465 9.6973 9.49465 9.92622V18.5577C9.49465 18.7866 9.40371 19.0062 9.24184 19.1681C9.07997 19.3299 8.86042 19.4209 8.6315 19.4209C8.40258 19.4209 8.18303 19.3299 8.02116 19.1681C7.85929 19.0062 7.76835 18.7866 7.76835 18.5577V9.92622C7.76835 9.6973 7.85929 9.47776 8.02116 9.31589C8.18303 9.15401 8.40258 9.06307 8.6315 9.06307ZM14.6735 9.92622C14.6735 9.6973 14.5826 9.47776 14.4207 9.31589C14.2589 9.15401 14.0393 9.06307 13.8104 9.06307C13.5815 9.06307 13.3619 9.15401 13.2001 9.31589C13.0382 9.47776 12.9472 9.6973 12.9472 9.92622V18.5577C12.9472 18.7866 13.0382 19.0062 13.2001 19.1681C13.3619 19.3299 13.5815 19.4209 13.8104 19.4209C14.0393 19.4209 14.2589 19.3299 14.4207 19.1681C14.5826 19.0062 14.6735 18.7866 14.6735 18.5577V9.92622Z" fill="#EF4444"/>
</svg>
