<svg width="21" height="21" viewBox="0 0 21 21" fill="none" xmlns="http://www.w3.org/2000/svg">
<path d="M18.9238 4.99147C18.9238 4.90579 18.9067 4.82069 18.8738 4.74161C18.8408 4.66256 18.792 4.59055 18.7312 4.53025L18.7271 4.52615L16.0942 1.87846L16.0893 1.87272C16.0289 1.811 15.9566 1.76206 15.8771 1.72854C15.7974 1.69501 15.7112 1.67775 15.6248 1.67775C15.5384 1.67777 15.4529 1.69504 15.3733 1.72854C15.2937 1.76203 15.2215 1.81102 15.1611 1.87272C15.1577 1.87621 15.1539 1.87995 15.1505 1.88337L3.46111 13.4277L2.04878 18.4733L7.09678 17.0601L18.7296 5.45432L18.7312 5.45186C18.792 5.3916 18.8408 5.32031 18.8738 5.24133C18.9067 5.16226 18.9237 5.07711 18.9238 4.99147ZM20.6015 4.99147C20.6015 5.29859 20.5402 5.60254 20.4221 5.88605C20.3043 6.16873 20.1313 6.42464 19.9142 6.64054L19.915 6.64136L8.12653 18.4028C8.0248 18.5042 7.89867 18.5779 7.76034 18.6166L1.06491 20.491C0.77307 20.5727 0.459993 20.4906 0.245695 20.2763C0.0315198 20.062 -0.0506326 19.7489 0.0310615 19.4571L1.90542 12.7617C1.94475 12.6213 2.02044 12.4939 2.12415 12.3914L13.9716 0.689777V0.690597C14.1863 0.473661 14.4414 0.300278 14.7228 0.181865C15.0084 0.0617761 15.315 2.44928e-05 15.6248 0C15.9347 0 16.2419 0.0616469 16.5276 0.181865C16.811 0.301144 17.0672 0.476339 17.2829 0.695512L19.9134 3.33911L20.0682 3.50869C20.2145 3.68565 20.3335 3.88417 20.4221 4.09688C20.5402 4.38037 20.6015 4.68436 20.6015 4.99147Z" fill="#6C7280"/>
</svg>
