<svg width="13" height="13" viewBox="0 0 13 13" fill="none" xmlns="http://www.w3.org/2000/svg">
<path d="M3.98645 3.98657C4.10185 3.87121 4.25835 3.8064 4.42153 3.8064C4.5847 3.8064 4.7412 3.87121 4.8566 3.98657L6.18213 5.31149L7.50705 3.98657C7.56382 3.9278 7.63172 3.88092 7.7068 3.84867C7.78188 3.81642 7.86263 3.79944 7.94434 3.79873C8.02605 3.79802 8.10708 3.81359 8.18271 3.84453C8.25834 3.87547 8.32704 3.92117 8.38482 3.97895C8.4426 4.03673 8.4883 4.10544 8.51924 4.18106C8.55018 4.25669 8.56575 4.33773 8.56504 4.41943C8.56433 4.50114 8.54736 4.5819 8.5151 4.65697C8.48285 4.73205 8.43597 4.79996 8.3772 4.85672L7.05228 6.18226L8.3772 7.50717C8.48929 7.62323 8.55132 7.77868 8.54992 7.94003C8.54852 8.10138 8.4838 8.25573 8.3697 8.36983C8.2556 8.48392 8.10126 8.54864 7.93991 8.55004C7.77856 8.55145 7.62311 8.48942 7.50705 8.37732L6.18213 7.05241L4.8566 8.37732C4.74009 8.48673 4.58559 8.54652 4.42578 8.54404C4.26598 8.54155 4.11341 8.477 4.00035 8.36402C3.8873 8.25105 3.82264 8.09852 3.82004 7.93872C3.81745 7.77892 3.87712 7.62437 3.98645 7.50779L5.31137 6.18287L3.98645 4.85734C3.87108 4.74194 3.80627 4.58544 3.80627 4.42226C3.80627 4.25909 3.87108 4.10259 3.98645 3.98719" fill="#111827"/>
<path fill-rule="evenodd" clip-rule="evenodd" d="M6.15382 0C2.75506 0 0 2.75506 0 6.15382C0 9.55257 2.75506 12.3076 6.15382 12.3076C9.55257 12.3076 12.3076 9.55257 12.3076 6.15382C12.3076 2.75506 9.55257 0 6.15382 0ZM1.23076 6.15382C1.23076 4.84814 1.74944 3.59594 2.67269 2.67269C3.59594 1.74944 4.84814 1.23076 6.15382 1.23076C7.45949 1.23076 8.71169 1.74944 9.63494 2.67269C10.5582 3.59594 11.0769 4.84814 11.0769 6.15382C11.0769 7.45949 10.5582 8.71169 9.63494 9.63494C8.71169 10.5582 7.45949 11.0769 6.15382 11.0769C4.84814 11.0769 3.59594 10.5582 2.67269 9.63494C1.74944 8.71169 1.23076 7.45949 1.23076 6.15382Z" fill="#111827"/>
</svg>
