<svg width="18" height="18" viewBox="0 0 18 18" fill="none" xmlns="http://www.w3.org/2000/svg">
<path d="M13.3643 7.68164C13.3642 6.9357 13.2171 6.19699 12.9316 5.50781C12.6461 4.81845 12.2268 4.19168 11.6992 3.66406C11.1717 3.13662 10.5456 2.71811 9.85645 2.43262C9.16709 2.14708 8.4278 2 7.68164 2C6.93564 2.00003 6.19704 2.14716 5.50781 2.43262C4.81845 2.71816 4.19168 3.13645 3.66406 3.66406C2.59856 4.72956 2.00007 6.1748 2 7.68164C2 9.18845 2.59866 10.6337 3.66406 11.6992C4.72956 12.7647 6.1748 13.3642 7.68164 13.3643C9.18857 13.3643 10.6337 12.7648 11.6992 11.6992C12.2268 11.1716 12.6461 10.5458 12.9316 9.85645C13.2172 9.16708 13.3643 8.4278 13.3643 7.68164ZM15.3643 7.68164C15.3643 8.69044 15.1653 9.69006 14.7793 10.6221C14.5216 11.2441 14.1817 11.8266 13.7734 12.3584L16.7412 15.3271C17.1316 15.7177 17.1317 16.3507 16.7412 16.7412C16.3507 17.1317 15.7177 17.1316 15.3271 16.7412L12.3584 13.7734C11.024 14.7979 9.38246 15.3643 7.68164 15.3643C5.64448 15.3642 3.69055 14.5547 2.25 13.1143C0.809364 11.6736 0 9.71901 0 7.68164C6.84423e-05 5.64437 0.809425 3.69057 2.25 2.25C2.96332 1.53668 3.8102 0.971012 4.74219 0.584961C5.67412 0.198942 6.67293 3.39335e-05 7.68164 0C8.69044 0 9.69006 0.198909 10.6221 0.584961C11.5539 0.971008 12.401 1.53678 13.1143 2.25C13.8275 2.96328 14.3933 3.81028 14.7793 4.74219C15.1653 5.67409 15.3642 6.67297 15.3643 7.68164Z" fill="#6C7280"/>
</svg>
